<svg width="54" height="51" viewBox="0 0 54 51" fill="none" xmlns="http://www.w3.org/2000/svg">
<path d="M27.0013 15.6258C21.4217 15.6258 16.8758 19.8349 16.8758 25.0012C16.8758 30.1675 21.4217 34.3767 27.0013 34.3767C32.5809 34.3767 37.1268 30.1675 37.1268 25.0012C37.1268 19.8349 32.5809 15.6258 27.0013 15.6258ZM52.9901 23.4875L43.0017 18.8681L46.5351 9.06294C47.0097 7.73475 45.6491 6.47492 44.2252 6.92416L33.6356 10.1958L28.6362 0.937545C27.9611 -0.312515 26.0415 -0.312515 25.3665 0.937545L20.3776 10.186L9.77743 6.9144C8.34298 6.47492 6.98237 7.73475 7.46755 9.05317L11.0009 18.8583L1.01255 23.4875C-0.337516 24.1125 -0.337516 25.8899 1.01255 26.515L11.0009 31.1343L7.46755 40.9493C6.99292 42.2774 8.35353 43.5373 9.77743 43.088L20.367 39.8164L25.3559 49.0649C26.0309 50.3149 27.9506 50.3149 28.6256 49.0649L33.6145 39.8164L44.2041 43.088C45.6385 43.5275 46.9992 42.2677 46.514 40.9493L42.9806 31.1441L52.969 26.5247C54.3401 25.8899 54.3401 24.1125 52.9901 23.4875ZM36.5467 33.8395C31.2835 38.7128 22.7191 38.7128 17.4559 33.8395C12.1928 28.9662 12.1928 21.0362 17.4559 16.1629C22.7191 11.2896 31.2835 11.2896 36.5467 16.1629C41.8098 21.0362 41.8098 28.9662 36.5467 33.8395Z" fill="#FED50D"/>
</svg>
